# xmcd CD Database Entry
#
# Track frame offsets:
# 150
# 17752
# 34121
# 51035
# 68529
# 89320
# 106602
# 136470
# 153848
# 173905
# 186468
# 214144
# 250432
#
# Disc length: 3596 seconds
#
# Revision: 1
# Processed by: cddbd v1.4b42PL0 Copyright (c) Steve Scherf et al.
# Submitted via: tcd 2.0b
#
DISCID=ab0e0a0d
DTITLE=Home Compilation - Trance
DYEAR=1900
DGENRE=
TTITLE0=Clubskills - Misunderstanding (original edit)
TTITLE1=Lagoona! - The Journey
TTITLE2=Lagoona! - Trance in Heaven
TTITLE3=303infinity - Trancending Reality
TTITLE4=Minister - Crystal Ambience
TTITLE5=MELON (club/dance/trance) - Love Indication
TTITLE6=The Cynic Project - Sidewinder (Raymond Wave Club mix)
TTITLE7=SAINT ! - Destination Unknown
TTITLE8=SAINT ! - SAINT ! You and Me
TTITLE9=303infinity - Timeless Journey Original
TTITLE10=Piste 11303infinity - Eliwer UK rave mix
TTITLE11=PPK - Resurection
TTITLE12=Minister - Optical Vibrations
EXTD=
EXTT0=
EXTT1=
EXTT2=
EXTT3=
EXTT4=
EXTT5=
EXTT6=
EXTT7=
EXTT8=
EXTT9=
EXTT10=
EXTT11=
EXTT12=
PLAYORDER=
